<svg xmlns="http://www.w3.org/2000/svg" width="384" height="64" viewBox="0 0 384 64" shape-rendering="crispEdges">
  <g transform="translate(0 0)" opacity=".3"><rect x="29" y="27" width="7" height="10" fill="#fde68a"/></g>
  <g transform="translate(64 0)" opacity=".55"><rect x="28" y="25" width="8" height="13" fill="#fde68a"/><rect x="18" y="29" width="6" height="5" fill="#f97316"/><rect x="41" y="29" width="6" height="5" fill="#f97316"/></g>
  <g transform="translate(128 0)" opacity=".86"><rect x="27" y="23" width="10" height="16" fill="#fff7ed"/><rect x="12" y="27" width="9" height="6" fill="#f97316"/><rect x="43" y="27" width="9" height="6" fill="#f97316"/><rect x="7" y="38" width="7" height="5" fill="#fde68a"/><rect x="50" y="38" width="7" height="5" fill="#fde68a"/></g>
  <g transform="translate(192 0)" opacity=".7"><rect x="26" y="22" width="12" height="17" fill="#fde68a"/><rect x="6" y="24" width="10" height="6" fill="#f97316"/><rect x="48" y="24" width="10" height="6" fill="#f97316"/><rect x="12" y="45" width="9" height="5" fill="#fff7ed"/><rect x="43" y="45" width="9" height="5" fill="#fff7ed"/></g>
  <g transform="translate(256 0)" opacity=".42"><rect x="24" y="24" width="16" height="12" fill="#f97316"/><rect x="4" y="30" width="12" height="5" fill="#fde68a"/><rect x="48" y="30" width="12" height="5" fill="#fde68a"/></g>
  <g transform="translate(320 0)" opacity=".18"><rect x="22" y="27" width="20" height="8" fill="#fde68a"/><rect x="2" y="32" width="10" height="4" fill="#f97316"/><rect x="52" y="32" width="10" height="4" fill="#f97316"/></g>
</svg>
